<svg xmlns="http://www.w3.org/2000/svg" viewBox="0 0 1024 1024">
    <defs>
        <style>
            .backgroundIcons {
                fill: #fff;
                opacity: 0.2;
            }
        </style>
    </defs>
    <title>background</title>
    <g id="Layer_2" data-name="Layer 2">
        <g id="background">
            <g id="background-2" data-name="background">
                <path id="Apple" class="backgroundIcons"
                    d="M932,227.84a101.86,101.86,0,0,0-22.34,8.8,101.66,101.66,0,0,0-22.34-8.8q-15.37-4-24.16-2.57-14.28,2.58-23.44,15.4-8.06,11.37-11,28.6a91,91,0,0,0,.37,31.53q4.38,26,17.57,43.63,15.75,21.26,39.55,21.26c3.91,0,8.17-1.22,12.82-3.67a20.71,20.71,0,0,1,21.24,0q7,3.68,12.81,3.67,23.8,0,39.55-21.26,13.18-17.61,17.58-43.63a91,91,0,0,0,.36-31.53q-2.93-17.24-11-28.6-9.15-12.82-23.43-15.4Q947.43,223.82,932,227.84Zm4-17.6a30.93,30.93,0,0,0,7-13.56,42.91,42.91,0,0,0,1.83-12.83l-.37-5.5L939,178a42.73,42.73,0,0,0-12.81,1.83,31,31,0,0,0-13.55,7q-7,7-8.43,20.16a47.77,47.77,0,0,0,0,11.73l5.5.37a42.73,42.73,0,0,0,12.81-1.83,31,31,0,0,0,13.55-7Z" />
                <path id="Carrot" class="backgroundIcons"
                    d="M109.31,614.58a45.55,45.55,0,0,1,0,81.87L72,714.71l-20.9-20.9a5.85,5.85,0,0,0-8.28,8.28l18,18-49,23.9a8.22,8.22,0,0,1-11-11l47-96.31,18.4,18.4a5.86,5.86,0,1,0,8.29-8.29L54.24,626.61a45.54,45.54,0,0,1,55.07-12Zm33.76-12.79c14.93-7.15,32.56-3.45,44.62,11.1-15.25,18.45-39.41,19.25-55.69,2.9l-2.93-2.93c-16.35-16.28-15.55-40.4,2.9-55.69,14.55,12.06,18.25,29.69,11.1,44.62Z" />
                <path id="Bread" class="backgroundIcons"
                    d="M957.34,541c0,9.86-7.89,17.85-20.83,17.85v83.31c0,5.75-5.24,10.42-11.71,10.42H802.43c-6.47,0-11.71-4.67-11.71-10.42V558.84c-12.94,0-20.83-8-20.83-17.85,0-24.65,35.15-55.05,93.72-55.05S957.34,516.34,957.34,541Z" />
                <path id="Chicken" class="backgroundIcons"
                    d="M1021.89,899.14c-15.39-8.31-34.6-6.44-47.2,6.16-15,15-14.92,39.29-.38,55.39a69,69,0,0,1-22.7,3.66H920.13l-14.89,14.87c-3.57,3.58-4.07,8.81-2.2,13.47a22.12,22.12,0,0,1-36.22,23.83A21.75,21.75,0,0,1,861.28,996a21.83,21.83,0,0,1-20.57-5.53,22.12,22.12,0,0,1,23.83-36.19c4.68,1.86,9.92,1.35,13.48-2.2l14.89-14.88V905.69c0-23.46,10.15-39.23,23.16-52.22a61.95,61.95,0,0,1,105.82,45.67Z" />
                <path id="Egg" class="backgroundIcons"
                    d="M542.55,933.7a70.39,70.39,0,1,1-140.78,0c0-38.86,31.53-117.32,70.39-117.32S542.55,894.84,542.55,933.7Z" />
                <path id="Fish" class="backgroundIcons"
                    d="M825.19,795.57c0,11.73-40.86,58.66-91.26,58.66-33,0-61.79-20.08-77.82-37.26l-32,24.22c-4.45,3.36-11.08-.22-10-5.38L623,795.57l-8.86-40.24c-1.14-5.15,5.5-8.74,10-5.37l32,24.21c16-17.18,44.84-37.26,77.82-37.26C784.33,736.91,825.19,783.84,825.19,795.57Zm-50.4,0a8.8,8.8,0,1,0-8.8,8.8A8.8,8.8,0,0,0,774.79,795.57Z" />
                <path id="Burger" class="backgroundIcons"
                    d="M465.16,606a17.6,17.6,0,0,1,0,35.19H312.64a17.6,17.6,0,1,1,0-35.19Zm11.73,52.79v5.86a23.47,23.47,0,0,1-23.47,23.47h-129a23.46,23.46,0,0,1-23.46-23.47v-5.86a5.87,5.87,0,0,1,5.87-5.87H471A5.87,5.87,0,0,1,476.89,658.75ZM303.78,566.4c14.73-23.8,47.16-42.53,85.12-42.57S459.29,542.6,474,566.4c7.26,11.73-.09,27.82-12.77,27.82H316.54C303.87,594.22,296.51,578.12,303.78,566.4ZM430,559a5.87,5.87,0,1,0,5.87-5.87A5.86,5.86,0,0,0,430,559ZM383,547.3a5.87,5.87,0,1,0,5.87-5.87A5.86,5.86,0,0,0,383,547.3ZM336.11,559a5.87,5.87,0,1,0,5.86-5.87A5.86,5.86,0,0,0,336.11,559Z" />
                <path id="HotDog" class="backgroundIcons"
                    d="M271.94,833.72l-129,129-.72.72a29.33,29.33,0,1,1-40.75-42.19l129.05-129a29.32,29.32,0,0,1,41.47,41.47Zm-18.3-14.87a5.87,5.87,0,0,0-8.3,0c-4.55,4.55-8,5.13-12.72,5.95-5.28.9-11.85,2-19,9.22s-8.31,13.75-9.22,19c-.82,4.75-1.4,8.18-6,12.73s-8,5.14-12.72,6c-5.28.9-11.85,2-19,9.22s-8.31,13.75-9.22,19c-.81,4.75-1.39,8.17-5.94,12.72s-8,5.14-12.73,5.95c-5.28.91-11.85,2-19,9.22a5.87,5.87,0,1,0,8.29,8.3c4.55-4.55,8-5.14,12.72-5.95,5.28-.91,11.86-2,19-9.22s8.31-13.76,9.22-19c.82-4.75,1.4-8.17,5.95-12.72s8-5.13,12.72-6c5.28-.91,11.85-2,19-9.22s8.31-13.75,9.22-19c.82-4.75,1.4-8.18,5.95-12.73s8-5.13,12.72-5.95c5.28-.9,11.85-2,19-9.22A5.86,5.86,0,0,0,253.64,818.85ZM100.12,897.54c-9.16-9.17-9.77-23.41-1.36-31.82l76.14-76.14c8.41-8.41,22.65-7.8,31.81,1.36l4.24,4.24L104.35,901.77Zm173.12-40.07c9.17,9.17,9.78,23.41,1.37,31.82l-76.14,76.14c-8.41,8.41-22.65,7.81-31.82-1.36l-4.23-4.23L269,853.24Z" />
                <path id="IceCream" class="backgroundIcons"
                    d="M267.33,366.69a17.6,17.6,0,0,1-17.6,17.6H144.14a17.6,17.6,0,1,1,0-35.2h.35a52.79,52.79,0,1,1,104.89,0h.35A17.6,17.6,0,0,1,267.33,366.69ZM150,396h93.85l-36.43,75.41a11.56,11.56,0,0,1-21,0Z" />
                <path id="Lemon" class="backgroundIcons"
                    d="M216.42,68.39C205,88.05,234.13,128.87,187.47,175.54S100,193,80.33,204.48c-6.91,4-17.36,2.09-25.07-5.61s-9.64-18.16-5.61-25.06C61.1,154.15,31.93,113.32,78.6,66.66s87.49-17.5,107.14-28.95c6.91-4,17.36-2.09,25.06,5.62S220.45,61.48,216.42,68.39Zm-83.55-7.32a5.34,5.34,0,0,0-6.47-3.89c-23.3,5.83-51.47,34-57.28,57.28a5.34,5.34,0,1,0,10.36,2.59C84.34,97.63,109.57,72.4,129,67.54A5.33,5.33,0,0,0,132.87,61.07Z" />
                <path id="Pepper" class="backgroundIcons"
                    d="M664.25,399.65H691.8a8.3,8.3,0,0,1,6,2.55l6.69,6.95a8.31,8.31,0,0,1,.91,10.38C684.29,451,628.64,490.9,555.24,490.9a20.53,20.53,0,0,1-20.51-19.77c-.43-11.73,9.2-21.21,20.95-21.3,47.92-.34,58.21-57.61,76.63-86.07a8.31,8.31,0,0,1,10.45-3.05l8.34,3.83a8.29,8.29,0,0,1,4.84,7.54v19.26A8.31,8.31,0,0,0,664.25,399.65Zm58.17-5.29c0,.65,0,1.29,0,1.93a6,6,0,0,1-10.23,3.91l-10.06-10.45a5.93,5.93,0,0,0-4.28-1.83H673.62a5.94,5.94,0,0,1-5.94-5.95V363.05a6,6,0,0,0-3.47-5.41L651.86,352a6,6,0,0,1,.58-11,50.79,50.79,0,0,1,15.85-2.55,52.29,52.29,0,0,1,20.91,4.37.06.06,0,0,0,.07,0c6.73-13.62,3-22.67.49-26.47a3,3,0,0,1,.32-3.75l8.4-8.43a2.73,2.73,0,0,1,.25-.23,2.93,2.93,0,0,1,4.12.45c6.8,8.6,12.94,26.34,1.17,48.26a.06.06,0,0,0,0,.06A56.45,56.45,0,0,1,722.42,394.36Z" />
                <path id="Pizza" class="backgroundIcons"
                    d="M807.07,127.8A12.09,12.09,0,0,1,798.41,141l-20.87,5.79C774.62,78.41,728.09,32.54,659.31,30.53L664.74,9.9a12.08,12.08,0,0,1,13-8.84C744.38,7.35,799.42,61.52,807.07,127.8ZM656.25,42.13C720.8,42.85,764.36,85.84,765.93,150L627,188.49a6,6,0,0,1-3.1,0,5.94,5.94,0,0,1-4.23-7.26l36.6-139.13Zm21.85,99.65a11.73,11.73,0,1,0-11.73,11.74A11.73,11.73,0,0,0,678.1,141.78Zm17.6-55.72A11.73,11.73,0,1,0,684,97.79,11.73,11.73,0,0,0,695.7,86.06Zm38.13,38.13a11.73,11.73,0,1,0-11.73,11.73A11.74,11.74,0,0,0,733.83,124.19Z" />
                <path id="Cutlery" class="backgroundIcons"
                    d="M405.32,123.31v51.77c-.44,1.25-5.53,1.17-5.86,0-.52-9.28-2.86-51-2.94-52-1.17-7.62-16.35-7.62-17.56,0,0,1-2.42,42.71-2.93,52-.33,1.17-5.39,1.25-5.87,0V123.31c-1-8-16.38-7.84-17.56-.4-.29,1.72-5.9,34.61-5.9,47.22,0,19.14,10.16,32.85,25.26,38.35l-4.73,87.29a8.83,8.83,0,0,0,8.8,9.28h23.46a8.83,8.83,0,0,0,8.8-9.28l-4.73-87.29c15.07-5.5,25.26-19.18,25.26-38.35,0-12.58-5.61-45.5-5.9-47.22C421.75,115.47,406.28,115.39,405.32,123.31Zm61.3,104.34c-57.37-44.87-6.45-110.31,23.8-110.31a8.8,8.8,0,0,1,8.79,8.79V296.25a8.78,8.78,0,0,1-8.79,8.8H469.89a8.8,8.8,0,0,1-8.77-9.54l5.5-67.86Z" />
            </g>
        </g>
    </g>
</svg>