<svg xmlns="http://www.w3.org/2000/svg" viewBox="0 0 475.33 475.33"><defs><style>.cls-1{fill:none;}</style></defs><title>logo_black</title><g id="Layer_2" data-name="Layer 2"><g id="Logo"><g id="logo_black"><g id="black"><path d="M244,344.87c-20.91,9.75-45.14,6.14-64.57-13.29-12.8-12.8-40.49-51.88-41.94-53.92-6.36-8.75,9.19-24.53,18.24-17.42l52.55,52.55c1.75.78,6.81-4.43,5.95-6-8.89-9.93-48.86-54.74-49.79-55.74-6.52-9,8.89-24.38,17.82-17.83,1.08.93,45.81,40.9,55.75,49.79,1.53.86,6.77-4.24,6-5.95l-52.55-52.55c-7.07-9,8.71-24.64,17.45-18.27,2,1.45,41.16,29.17,53.93,41.94,19.46,19.46,23,43.69,13.28,64.57L330.93,362l57.69-59.57-29.07-34.2C255.75,280.93,241,162.81,271.72,132.11a12.62,12.62,0,0,1,17.86,0L423.7,266.22l14.59-15.07c52.27-53.93,49.21-143.24-9.09-193h0C378.32,14.79,302.66,22.59,256,70.77L237.67,89.62,219.38,70.77C172.78,22.59,97,14.79,46.15,58.15c-58.3,49.76-61.36,139.07-9.19,193L216.6,436.64a29.09,29.09,0,0,0,42,0l35.14-36.27Z"/></g><rect class="cls-1" width="475.33" height="475.33"/></g></g></g></svg>