<svg xmlns="http://www.w3.org/2000/svg" xmlns:xlink="http://www.w3.org/1999/xlink" viewBox="0 0 512 512"><defs><style>.cls-1{fill:url(#linear-gradient);}.cls-2{fill:#fff;}.cls-3{fill:none;}</style><linearGradient id="linear-gradient" x1="-52.33" y1="368.22" x2="564.33" y2="143.78" gradientUnits="userSpaceOnUse"><stop offset="0" stop-color="#d84a7d"/><stop offset="1" stop-color="#ffac52"/></linearGradient></defs><title>maskableIcon</title><g id="Layer_2" data-name="Layer 2"><g id="Logo"><g id="maskableIcon"><rect class="cls-1" width="512" height="512"/><g id="logo_white"><g id="White"><path class="cls-2" d="M260.32,347.24c-14.29,6.66-30.84,4.19-44.11-9.08-8.75-8.75-27.66-35.44-28.65-36.84-4.35-6,6.28-16.75,12.46-11.9l35.89,35.9c1.2.53,4.66-3,4.07-4.07-6.07-6.79-33.38-37.4-34-38.08C201.52,277,212,266.51,218.14,271c.74.63,31.3,27.94,38.09,34,1,.58,4.63-2.9,4.07-4.07L224.4,265c-4.83-6.15,5.95-16.83,11.92-12.48,1.4,1,28.12,19.93,36.84,28.65,13.3,13.3,15.71,29.85,9.08,44.11L319.72,359l39.41-40.7-19.87-23.36c-70.9,8.67-81-72-60-93a8.63,8.63,0,0,1,12.21,0l91.62,91.62,10-10.3c35.71-36.84,33.61-97.86-6.22-131.85h0C352.09,121.74,300.4,127.07,268.5,160L256,172.86,243.51,160c-31.84-32.92-83.59-38.25-118.35-8.63-39.82,34-41.92,95-6.27,131.85L241.61,409.93a19.89,19.89,0,0,0,28.73,0l24-24.78Z"/></g><rect class="cls-3" x="61.28" y="79.28" width="389.45" height="389.45"/></g></g></g></g></svg>